<svg xmlns="http://www.w3.org/2000/svg" viewBox="0 0 260.51 152.84"><defs><style>.cls-1{fill:#fdf3c9;}.cls-1,.cls-4,.cls-5{stroke:#333;stroke-miterlimit:10;}.cls-2{fill:#333;}.cls-3,.cls-5{fill:#fff;}.cls-4{fill:none;}.cls-5{stroke-width:1.5px;}</style></defs><g id="Capa_2" data-name="Capa 2"><g id="Capa_1-2" data-name="Capa 1"><rect class="cls-1" x="82.74" y="-20.28" width="118.34" height="202.88" transform="translate(59.87 222.56) rotate(-89.64)"/><path class="cls-2" d="M138.89,99.58a6.65,6.65,0,0,1-5.1-2.55c-1.09-1.1-2-2-4-2.06s-2.88.92-4,2-2.53,2.49-5.14,2.47a6.69,6.69,0,0,1-5.11-2.55c-1.08-1.1-2-2-3.95-2.06s-2.88.92-4,2-2.53,2.49-5.14,2.47a6.69,6.69,0,0,1-5.11-2.55c-1.08-1.1-2-2-4-2.06V93.05c2.62,0,3.94,1.36,5.11,2.55s2,2.05,4,2.06,2.88-.91,4-2,2.53-2.49,5.14-2.47,3.94,1.37,5.11,2.55,2,2.05,4,2.07,2.88-.92,4-2,2.54-2.49,5.15-2.47,3.93,1.37,5.1,2.55,2,2.05,4,2.07Z"/><path class="cls-2" d="M138.83,107c-2.61,0-3.93-1.36-5.1-2.55s-2-2.05-3.95-2.06-2.89.92-4,2a6.48,6.48,0,0,1-10.24-.08c-1.09-1.1-2-2.05-4-2.07s-2.88.92-4,2a6.7,6.7,0,0,1-5.14,2.47c-2.61,0-3.94-1.37-5.11-2.55s-2-2.05-4-2.07l0-1.63c2.61,0,3.93,1.36,5.1,2.55s2,2,4,2.06,2.88-.92,4-2a6.7,6.7,0,0,1,5.15-2.47c2.61,0,3.93,1.36,5.1,2.55s2,2,4,2.06,2.89-.92,4-2a6.48,6.48,0,0,1,10.24.08c1.09,1.1,2,2,4,2.06Z"/><path class="cls-2" d="M139,92.22c-2.61,0-3.94-1.37-5.11-2.55s-2-2-4-2.07-2.88.92-4,2-2.53,2.5-5.15,2.48-3.93-1.37-5.1-2.56-2-2-4-2.06-2.88.92-4,2-2.53,2.5-5.15,2.47-3.93-1.36-5.1-2.55-2-2-4-2.06V85.68c2.61,0,3.94,1.37,5.11,2.55s2,2,3.95,2.07,2.88-.92,4-2,2.53-2.5,5.14-2.48,3.94,1.37,5.11,2.56,2,2,4,2.06,2.88-.92,4-2,2.53-2.5,5.14-2.48A6.71,6.71,0,0,1,135,88.52c1.08,1.1,2,2,4,2.06Z"/><path class="cls-2" d="M75.7,68.08l0,6,5.43,0a5.32,5.32,0,0,0,2.26-.38,2.81,2.81,0,0,0,1.49-2.78,2.39,2.39,0,0,0-1.41-2.41,5.44,5.44,0,0,0-2.23-.39Zm.06-8.64,0,4.94,5.44,0a4.52,4.52,0,0,0,2.37-.53,2.14,2.14,0,0,0,.92-2,2,2,0,0,0-1.19-2.07,8.42,8.42,0,0,0-2.64-.37ZM87.91,58a5.64,5.64,0,0,1,1,3.42,5,5,0,0,1-1.06,3.28A5.29,5.29,0,0,1,86.14,66a5,5,0,0,1,2.57,2,5.91,5.91,0,0,1,.85,3.28,6.58,6.58,0,0,1-1,3.56,6.37,6.37,0,0,1-1.6,1.75,6.11,6.11,0,0,1-2.53,1.1,15.08,15.08,0,0,1-3.17.28l-10.07-.07.15-22.36,10.81.08C84.86,55.66,86.78,56.47,87.91,58Z"/><path class="cls-2" d="M100.05,71.19a4.58,4.58,0,0,0,.84,2.3c.77.92,2.09,1.39,4,1.4a8.51,8.51,0,0,0,2.75-.34,2.61,2.61,0,0,0,2-2.58,1.91,1.91,0,0,0-1-1.72,10.67,10.67,0,0,0-3.1-1.07l-2.42-.55a14.75,14.75,0,0,1-4.89-1.75A5.46,5.46,0,0,1,96,62a6.42,6.42,0,0,1,2.25-5q2.22-2,6.51-1.94A9.94,9.94,0,0,1,110.87,57a6.68,6.68,0,0,1,2.61,5.45l-4.49,0a3.21,3.21,0,0,0-1.78-2.88,6.25,6.25,0,0,0-2.78-.58,5.31,5.31,0,0,0-3,.71,2.29,2.29,0,0,0-1.11,2,1.91,1.91,0,0,0,1.07,1.8,13.79,13.79,0,0,0,3,.95l3.92,1a10.08,10.08,0,0,1,3.85,1.65,5.47,5.47,0,0,1,2,4.58,6.43,6.43,0,0,1-2.4,5.08,10.06,10.06,0,0,1-6.71,2,11,11,0,0,1-6.94-2,6.63,6.63,0,0,1-2.49-5.5Z"/><path class="cls-2" d="M122.74,58.22a9.26,9.26,0,0,1,6.9-2.71q5.58,0,8.14,3.76a8,8,0,0,1,1.5,4.18l-4.67,0A6.46,6.46,0,0,0,133.48,61a4.63,4.63,0,0,0-3.69-1.48,4.58,4.58,0,0,0-4,2,10.06,10.06,0,0,0-1.48,5.81q0,3.76,1.48,5.64a4.76,4.76,0,0,0,3.86,1.9,4.32,4.32,0,0,0,3.67-1.58,6.91,6.91,0,0,0,1.18-2.58l4.64,0a10,10,0,0,1-3.11,5.92,8.91,8.91,0,0,1-6.34,2.25,9.46,9.46,0,0,1-7.48-3.15q-2.72-3.12-2.68-8.54,0-5.87,3.17-9"/><path class="cls-2" d="M155.09,69a6.6,6.6,0,0,0,4.19,1.25,6.13,6.13,0,0,0,4.08-1.22,4,4,0,0,0,1.5-3.17A3.5,3.5,0,0,0,163.6,63a6.15,6.15,0,0,0-2.35-1L159,61.42a7,7,0,0,1-1.61-.51.74.74,0,0,1-.43-.72,1,1,0,0,1,.48-.86,2.63,2.63,0,0,1,1.5-.35,3.13,3.13,0,0,1,1.43.29,1.51,1.51,0,0,1,.84,1.36.34.34,0,0,0,.35.33l2.57,0a.4.4,0,0,0,.26-.1.42.42,0,0,0,.1-.26,4.15,4.15,0,0,0-1.64-3.4,6.07,6.07,0,0,0-3.7-1.17,5.72,5.72,0,0,0-4,1.2,4,4,0,0,0-1.41,3.11,3.47,3.47,0,0,0,1.43,3.08,8.92,8.92,0,0,0,2.93,1.06l1.38.31a5.74,5.74,0,0,1,1.67.57.74.74,0,0,1,.39.68,1.15,1.15,0,0,1-.92,1.15,4.78,4.78,0,0,1-1.46.18,2.55,2.55,0,0,1-2-.68,2.26,2.26,0,0,1-.4-1.14.38.38,0,0,0-.35-.31h-2.56a.36.36,0,0,0-.36.35A4.12,4.12,0,0,0,155.09,69m7.19-3a1.46,1.46,0,0,0-.73-1.29,6.05,6.05,0,0,0-1.88-.66l-1.39-.31a8.42,8.42,0,0,1-2.68-1,2.78,2.78,0,0,1-1.12-2.49,3.3,3.3,0,0,1,1.17-2.59,5.07,5.07,0,0,1,3.49-1,5.41,5.41,0,0,1,3.28,1,3.35,3.35,0,0,1,1.34,2.49h-1.88a2.16,2.16,0,0,0-1.18-1.62,4.05,4.05,0,0,0-1.76-.37,3.46,3.46,0,0,0-1.89.46,1.67,1.67,0,0,0-.8,1.46,1.46,1.46,0,0,0,.79,1.34,8.1,8.1,0,0,0,1.8.58l2.24.55a5.52,5.52,0,0,1,2.08.87,2.8,2.8,0,0,1,1,2.35,3.33,3.33,0,0,1-1.25,2.64,5.43,5.43,0,0,1-3.62,1,6,6,0,0,1-3.75-1.09A3.33,3.33,0,0,1,154.24,66h1.89a2.62,2.62,0,0,0,.51,1.19,3.21,3.21,0,0,0,2.55.94,5.37,5.37,0,0,0,1.69-.22A1.85,1.85,0,0,0,162.28,66.07Z"/><path class="cls-2" d="M168.41,70l2.64,0a.35.35,0,0,0,.35-.35l0-4.14.9-.9L176,69.92a.35.35,0,0,0,.29.15l3.44,0a.35.35,0,0,0,.32-.19.35.35,0,0,0,0-.37l-5.3-7.34,5.08-5a.35.35,0,0,0,.08-.39.35.35,0,0,0-.32-.22l-3.47,0a.34.34,0,0,0-.25.11l-4.38,4.6,0-4.39a.35.35,0,0,0-.35-.36h-2.63a.34.34,0,0,0-.36.35l-.09,12.82a.35.35,0,0,0,.35.35M171,62.47a.36.36,0,0,0,.39-.09l4.88-5.13h2.46L174,61.9a.35.35,0,0,0,0,.46l5.07,7-2.56,0-3.81-5.47a.35.35,0,0,0-.26-.15.36.36,0,0,0-.28.1l-1.3,1.3a.33.33,0,0,0-.1.25l0,3.93h-1.93l.08-12.11h1.93l0,4.93A.36.36,0,0,0,171,62.47Z"/><path class="cls-2" d="M183,70.11l2.66,0a.36.36,0,0,0,.36-.35L186.13,57a.36.36,0,0,0-.35-.36h-2.66a.36.36,0,0,0-.36.35l-.08,12.82a.34.34,0,0,0,.35.35m.44-12.81h1.95l-.08,12.11h-2Z"/><path class="cls-2" d="M190.16,70.16l2.5,0a.36.36,0,0,0,.36-.35l0-7.77,4.5,8a.35.35,0,0,0,.31.18l2.68,0a.36.36,0,0,0,.35-.36L201,57.06a.35.35,0,0,0-.35-.35l-2.5,0a.35.35,0,0,0-.35.35l-.06,7.6-4.37-7.8a.35.35,0,0,0-.3-.18l-2.81,0a.34.34,0,0,0-.36.35l-.09,12.82a.35.35,0,0,0,.35.35M198.44,66l.06-8.59h1.79l-.08,12.12-2.12,0-5.06-9a.35.35,0,0,0-.66.17l-.06,8.74h-1.79l.09-12.11h2.24l4.93,8.8a.35.35,0,0,0,.66-.17Z"/><path class="cls-2" d="M159.69,77.3a2.31,2.31,0,0,1,1.85.73,3.23,3.23,0,0,1,.57,1.26.36.36,0,0,0,.34.26l2.68,0a.36.36,0,0,0,.26-.11.37.37,0,0,0,.1-.26,5.12,5.12,0,0,0-.92-2.59A6.35,6.35,0,0,0,155.4,76a7.48,7.48,0,0,0-1.92,5.41,7.54,7.54,0,0,0,1.62,5.13,5.86,5.86,0,0,0,4.56,1.93,5.5,5.5,0,0,0,3.87-1.38,6.15,6.15,0,0,0,1.9-3.6.34.34,0,0,0-.08-.29.35.35,0,0,0-.27-.13l-2.66,0a.35.35,0,0,0-.34.26,3.77,3.77,0,0,1-.61,1.36,2.14,2.14,0,0,1-1.83.77,2.36,2.36,0,0,1-1.94-1,4.77,4.77,0,0,1-.77-3,5.43,5.43,0,0,1,.79-3.12,2.27,2.27,0,0,1,2-1m-3.47,4.14a5.45,5.45,0,0,0,.93,3.46,3.07,3.07,0,0,0,2.48,1.22,2.84,2.84,0,0,0,2.39-1,4,4,0,0,0,.66-1.35l2,0a5.38,5.38,0,0,1-1.59,2.78,4.78,4.78,0,0,1-3.4,1.2,5.12,5.12,0,0,1-4-1.68,6.91,6.91,0,0,1-1.45-4.67,6.76,6.76,0,0,1,1.72-4.91,4.89,4.89,0,0,1,3.7-1.45A5,5,0,0,1,164,77a4.61,4.61,0,0,1,.76,1.85l-2,0a3.67,3.67,0,0,0-.64-1.27,3.27,3.27,0,0,0-4.94.34A6.05,6.05,0,0,0,156.22,81.44Z"/><path class="cls-2" d="M172.75,83.33l3.28,0a.35.35,0,0,0,.29-.15.31.31,0,0,0,.05-.31l-1.58-5.06a.38.38,0,0,0-.34-.25.36.36,0,0,0-.34.25l-1.69,5a.35.35,0,0,0,.33.47m.49-.71,1.2-3.54,1.11,3.56Z"/><path class="cls-2" d="M177.22,88a.35.35,0,0,0,.33.24l2.91,0a.37.37,0,0,0,.29-.14.39.39,0,0,0,0-.33L176.35,74.9a.37.37,0,0,0-.33-.24l-3,0a.37.37,0,0,0-.33.24L168,87.66A.39.39,0,0,0,168,88a.35.35,0,0,0,.28.15l2.81,0a.35.35,0,0,0,.33-.24l.81-2.39,4.21,0Zm-8.4-.52,4.41-12.09,2.53,0L180,87.51h-2.14l-.75-2.4a.39.39,0,0,0-.34-.25l-4.72,0a.37.37,0,0,0-.34.24l-.8,2.39Z"/><path class="cls-2" d="M191.22,77.27a2.82,2.82,0,0,0-1.4-.28l-3,0a.34.34,0,0,0-.36.35l0,3.44a.35.35,0,0,0,.35.36l2.88,0a3.3,3.3,0,0,0,1.45-.24,1.77,1.77,0,0,0,1-1.75,1.93,1.93,0,0,0-.91-1.88m.2,1.87a1.12,1.12,0,0,1-.57,1.13,2.87,2.87,0,0,1-1.13.16l-2.53,0,0-2.73h2.6a2.32,2.32,0,0,1,1.07.2A1.26,1.26,0,0,1,191.42,79.14Z"/><path class="cls-2" d="M190.7,83.57c.12.12.31.45.32,1.39v1.2a7.61,7.61,0,0,0,.12,1.17c0,.18.09.42.17.71a.35.35,0,0,0,.34.26l3,0A.35.35,0,0,0,195,88v-.32a.39.39,0,0,0-.17-.31.68.68,0,0,1-.33-.5,6,6,0,0,1-.06-1.12v-.86a4.41,4.41,0,0,0-.4-2.18,2.49,2.49,0,0,0-.76-.83,2.79,2.79,0,0,0,1-1.09,4.26,4.26,0,0,0,.52-2,4.1,4.1,0,0,0-.25-1.48,4.28,4.28,0,0,0-.7-1.18,3.51,3.51,0,0,0-1.32-1,5.94,5.94,0,0,0-2.16-.38l-6.13,0a.36.36,0,0,0-.36.35l-.09,12.82a.36.36,0,0,0,.35.36l2.62,0a.36.36,0,0,0,.36-.35l0-4.68,2.26,0a1.88,1.88,0,0,1,1.27.31m1.65-2.08a.35.35,0,0,0-.24.33.35.35,0,0,0,.22.34,2.06,2.06,0,0,1,1.07.86,3.93,3.93,0,0,1,.31,1.84v.86a6.18,6.18,0,0,0,.07,1.26,1.51,1.51,0,0,0,.27.63h-2.12a3.4,3.4,0,0,1-.1-.41,6.92,6.92,0,0,1-.1-1V85a2.64,2.64,0,0,0-.51-1.88,2.44,2.44,0,0,0-1.77-.53l-2.62,0a.36.36,0,0,0-.36.35l0,4.68-1.91,0,.09-12.11,5.77,0a5.1,5.1,0,0,1,1.88.32,2.82,2.82,0,0,1,1.07.8,3.79,3.79,0,0,1,.58,1,3.29,3.29,0,0,1,.2,1.22,3.51,3.51,0,0,1-.43,1.63A2.25,2.25,0,0,1,192.35,81.49Z"/><path class="cls-2" d="M198.79,75.18,198.7,88a.36.36,0,0,0,.36.35l9.71.07a.36.36,0,0,0,.36-.35V85.76a.35.35,0,0,0-.35-.35l-6.74,0,0-2.59,5.87,0a.35.35,0,0,0,.36-.35V80.23a.35.35,0,0,0-.35-.35l-5.87,0v-2l6.43.05a.36.36,0,0,0,.36-.35V75.25a.35.35,0,0,0-.35-.36l-9.4-.06a.34.34,0,0,0-.36.35m9.39,2-6.43,0a.35.35,0,0,0-.35.35l0,2.73a.35.35,0,0,0,.35.35l5.87,0V82.1l-5.87,0a.36.36,0,0,0-.36.35l0,3.3a.36.36,0,0,0,.35.36l6.74,0v1.6l-9-.06.09-12.11,8.69.06Z"/><path class="cls-2" d="M163.46,92.72l-9.14-.06A.35.35,0,0,0,154,93l-.09,12.8a.36.36,0,0,0,.35.36l2.66,0a.36.36,0,0,0,.36-.35l0-5,5.32,0a.35.35,0,0,0,.36-.35V98.27a.35.35,0,0,0-.35-.35l-5.32,0V95.64l6.13,0a.35.35,0,0,0,.35-.35l0-2.25a.36.36,0,0,0-.35-.36m-6.85,2.56,0,3a.36.36,0,0,0,.35.36l5.32,0v1.52l-5.32,0a.36.36,0,0,0-.36.36l0,5-2,0,.09-12.09,8.43.06V95l-6.13,0A.35.35,0,0,0,156.61,95.28Z"/><path class="cls-2" d="M169.65,92.75l-2.66,0a.35.35,0,0,0-.35.35l-.09,12.82a.35.35,0,0,0,.35.36l2.66,0a.36.36,0,0,0,.36-.36L170,93.1a.36.36,0,0,0-.36-.35m-.44,12.81h-2l.08-12.11h2Z"/><path class="cls-2" d="M179.69,99.2a3.44,3.44,0,0,0,1.44-.24,1.78,1.78,0,0,0,1-1.75,2,2,0,0,0-.91-1.89,3.08,3.08,0,0,0-1.41-.28l-3,0a.36.36,0,0,0-.35.36l0,3.44a.37.37,0,0,0,.36.36Zm-2.52-.73V95.73l2.61,0a2.56,2.56,0,0,1,1.07.19,1.33,1.33,0,0,1,.54,1.26,1.11,1.11,0,0,1-.57,1.12,2.72,2.72,0,0,1-1.14.17Z"/><path class="cls-2" d="M184.77,105.4a.69.69,0,0,1-.32-.51,5.72,5.72,0,0,1-.06-1.11v-.86a4.65,4.65,0,0,0-.4-2.18,2.53,2.53,0,0,0-.77-.83,2.75,2.75,0,0,0,1.05-1.09,4.29,4.29,0,0,0,.52-2,4,4,0,0,0-.26-1.48,4.35,4.35,0,0,0-.69-1.18,3.44,3.44,0,0,0-1.33-1,5.85,5.85,0,0,0-2.16-.38l-6.13,0a.35.35,0,0,0-.35.35L173.79,106a.35.35,0,0,0,.35.36l2.62,0a.36.36,0,0,0,.35-.36l0-4.67,2.26,0a1.9,1.9,0,0,1,1.27.31c.11.12.31.45.31,1.39v1.19a6.45,6.45,0,0,0,.11,1.17q.06.28.18.72a.35.35,0,0,0,.34.26l3,0a.36.36,0,0,0,.36-.35v-.32a.36.36,0,0,0-.17-.31m-8.33-4.46,0,4.67H174.5l.08-12.11,5.77,0a5.16,5.16,0,0,1,1.89.32,2.71,2.71,0,0,1,1.06.8,3.53,3.53,0,0,1,.58,1,3.27,3.27,0,0,1,.21,1.21,3.61,3.61,0,0,1-.43,1.63,2.25,2.25,0,0,1-1.33,1.07.38.38,0,0,0-.25.33.36.36,0,0,0,.22.33,2.11,2.11,0,0,1,1.08.87,4,4,0,0,1,.31,1.83v.87a7,7,0,0,0,.07,1.26,1.51,1.51,0,0,0,.28.63l-2.13,0c0-.15-.07-.29-.09-.4a6,6,0,0,1-.1-1V103a2.74,2.74,0,0,0-.51-1.89,2.49,2.49,0,0,0-1.78-.52l-2.61,0A.36.36,0,0,0,176.44,100.94Z"/><path class="cls-2" d="M198.08,99.47a6.15,6.15,0,0,0-2.35-1l-2.25-.55a7.24,7.24,0,0,1-1.61-.5.74.74,0,0,1-.43-.72,1,1,0,0,1,.48-.87,2.8,2.8,0,0,1,1.5-.35,3.26,3.26,0,0,1,1.43.3,1.47,1.47,0,0,1,.83,1.35.37.37,0,0,0,.36.34h2.57a.32.32,0,0,0,.26-.1.4.4,0,0,0,.1-.26,4.16,4.16,0,0,0-1.64-3.4,6.07,6.07,0,0,0-3.7-1.17,5.77,5.77,0,0,0-4,1.2,4,4,0,0,0-1.41,3.12,3.46,3.46,0,0,0,1.43,3.07,8.6,8.6,0,0,0,2.93,1.06l1.38.32a6.11,6.11,0,0,1,1.67.56.75.75,0,0,1,.39.69,1.13,1.13,0,0,1-.92,1.14,4.23,4.23,0,0,1-1.46.18,2.48,2.48,0,0,1-2-.68,2.22,2.22,0,0,1-.4-1.14.36.36,0,0,0-.35-.3l-2.56,0a.37.37,0,0,0-.36.35,4.12,4.12,0,0,0,1.57,3.43,6.6,6.6,0,0,0,4.19,1.25,6,6,0,0,0,4.07-1.21,4.06,4.06,0,0,0,1.51-3.18,3.51,3.51,0,0,0-1.26-2.91m-1.33,3.09a1.44,1.44,0,0,0-.72-1.29,6.33,6.33,0,0,0-1.88-.66l-1.39-.31a8.42,8.42,0,0,1-2.68-1A2.77,2.77,0,0,1,189,96.86a3.3,3.3,0,0,1,1.17-2.59,5.07,5.07,0,0,1,3.49-1,5.4,5.4,0,0,1,3.28,1,3.36,3.36,0,0,1,1.34,2.49h-1.88a2.14,2.14,0,0,0-1.18-1.61,3.78,3.78,0,0,0-1.76-.37,3.37,3.37,0,0,0-1.89.46,1.64,1.64,0,0,0-.8,1.45,1.44,1.44,0,0,0,.79,1.34,8.1,8.1,0,0,0,1.8.58l2.24.55a5.35,5.35,0,0,1,2.08.88,2.78,2.78,0,0,1,1,2.34,3.35,3.35,0,0,1-1.25,2.65,5.48,5.48,0,0,1-3.62,1A6,6,0,0,1,190,105a3.32,3.32,0,0,1-1.29-2.52h1.89a2.71,2.71,0,0,0,.51,1.2,3.21,3.21,0,0,0,2.55.93,5.09,5.09,0,0,0,1.69-.22A1.82,1.82,0,0,0,196.75,102.56Z"/><path class="cls-2" d="M212.26,93,201.87,93a.35.35,0,0,0-.35.35l0,2.27a.36.36,0,0,0,.35.36l3.5,0-.07,10.2a.37.37,0,0,0,.35.36h2.7a.34.34,0,0,0,.35-.35L208.75,96l3.49,0a.35.35,0,0,0,.35-.35l0-2.27a.36.36,0,0,0-.35-.36m-6.55,2.23-3.5,0V93.68l9.68.07v1.56l-3.48,0a.35.35,0,0,0-.36.35L208,105.83h-2l.07-10.2A.35.35,0,0,0,205.71,95.27Z"/><path class="cls-3" d="M50.45,86a33.15,33.15,0,1,0,33.9,32.37A33.18,33.18,0,0,0,50.45,86Z"/><path class="cls-4" d="M50.45,86a33.15,33.15,0,1,0,33.9,32.37A33.18,33.18,0,0,0,50.45,86Z"/><path class="cls-2" d="M40.11,101.67a3.59,3.59,0,1,0,3.67,3.51A3.61,3.61,0,0,0,40.11,101.67Z"/><path class="cls-2" d="M61.51,101.17a3.59,3.59,0,1,0,3.67,3.51A3.6,3.6,0,0,0,61.51,101.17Z"/><path class="cls-2" d="M51.43,128a11.21,11.21,0,0,0,10.93-11.3l-2.22,0a9,9,0,0,1-17.94.42l-2.21,0A11.2,11.2,0,0,0,51.43,128Z"/><path class="cls-5" d="M12,37.45a.57.57,0,0,0-1.13,0c0,9.95-8.55,10.31-9.51,10.31h0a.45.45,0,0,0-.34.13c-.09,0-.13.13-.18.17a.65.65,0,0,0,0,.56.59.59,0,0,0,.51.3h0c1,0,9.51.34,9.52,10.29a.57.57,0,1,0,1.13,0c0-9.9,8.51-10.3,9.51-10.3h0a.68.68,0,0,0,.52-.3.54.54,0,0,0,0-.56.72.72,0,0,0-.47-.31h0C20.54,47.74,12,47.4,12,37.45Z"/><path class="cls-5" d="M64.14,1.52a.77.77,0,1,0-1.54,0c0,13.65-11.74,14.13-13.05,14.13h0a.67.67,0,0,0-.47.18c-.12.06-.18.18-.24.24a.87.87,0,0,0,0,.77.83.83,0,0,0,.71.42h.06c1.37,0,13.06.46,13.07,14.11a.77.77,0,1,0,1.54,0c0-13.59,11.68-14.13,13-14.13h0a.91.91,0,0,0,.71-.42.72.72,0,0,0-.06-.77,1,1,0,0,0-.66-.42h0C75.9,15.64,64.15,15.17,64.14,1.52Z"/><path class="cls-5" d="M245.84,104.61a.78.78,0,0,0-.77-.77.79.79,0,0,0-.77.78c0,13.64-11.74,14.13-13.05,14.13h0a.67.67,0,0,0-.47.18.89.89,0,0,0-.24.23.87.87,0,0,0,0,.77.83.83,0,0,0,.72.42h.06c1.36,0,13.05.47,13.06,14.11a.77.77,0,0,0,1.54,0c0-13.59,11.68-14.13,13.05-14.13h0a.93.93,0,0,0,.71-.41.74.74,0,0,0-.06-.78,1,1,0,0,0-.65-.41h0C257.6,118.73,245.85,118.26,245.84,104.61Z"/></g></g></svg>